<mxfile host="Electron" modified="2021-01-30T08:51:00.356Z" agent="5.0 (Windows NT 10.0; Win64; x64) AppleWebKit/537.36 (KHTML, like Gecko) draw.io/13.5.7 Chrome/83.0.4103.122 Electron/9.1.2 Safari/537.36" etag="d5pkGg870RINog-7heyn" compressed="false" version="13.5.7" type="device">
  <diagram id="VXitzOtrvOsZxxCNitUr" name="第 1 页">
    <mxGraphModel dx="1089" dy="964" grid="1" gridSize="10" guides="1" tooltips="1" connect="1" arrows="1" fold="1" page="1" pageScale="1" pageWidth="827" pageHeight="1169" math="0" shadow="0">
      <root>
        <mxCell id="0" />
        <mxCell id="1" parent="0" />
        <mxCell id="Uhn3fTIwQ2IVQY8i1YJ_-3" value="" style="rounded=0;whiteSpace=wrap;html=1;" vertex="1" parent="1">
          <mxGeometry x="220" y="310" width="100" height="60" as="geometry" />
        </mxCell>
        <mxCell id="Uhn3fTIwQ2IVQY8i1YJ_-4" value="" style="rounded=0;whiteSpace=wrap;html=1;" vertex="1" parent="1">
          <mxGeometry x="220" y="370" width="100" height="60" as="geometry" />
        </mxCell>
        <mxCell id="Uhn3fTIwQ2IVQY8i1YJ_-5" value="" style="rounded=0;whiteSpace=wrap;html=1;" vertex="1" parent="1">
          <mxGeometry x="220" y="430" width="100" height="60" as="geometry" />
        </mxCell>
        <mxCell id="Uhn3fTIwQ2IVQY8i1YJ_-6" value="" style="rounded=0;whiteSpace=wrap;html=1;" vertex="1" parent="1">
          <mxGeometry x="220" y="250" width="100" height="60" as="geometry" />
        </mxCell>
        <mxCell id="Uhn3fTIwQ2IVQY8i1YJ_-7" value="" style="endArrow=none;html=1;" edge="1" parent="1">
          <mxGeometry width="50" height="50" relative="1" as="geometry">
            <mxPoint x="220" y="250" as="sourcePoint" />
            <mxPoint x="220" y="190" as="targetPoint" />
          </mxGeometry>
        </mxCell>
        <mxCell id="Uhn3fTIwQ2IVQY8i1YJ_-8" value="" style="endArrow=none;html=1;" edge="1" parent="1">
          <mxGeometry width="50" height="50" relative="1" as="geometry">
            <mxPoint x="320" y="250" as="sourcePoint" />
            <mxPoint x="320" y="190" as="targetPoint" />
          </mxGeometry>
        </mxCell>
        <mxCell id="Uhn3fTIwQ2IVQY8i1YJ_-9" value="&lt;font style=&quot;font-size: 14px&quot;&gt;入栈&lt;br&gt;{A,B,C,D}&lt;/font&gt;" style="text;html=1;strokeColor=none;fillColor=none;align=center;verticalAlign=middle;whiteSpace=wrap;rounded=0;strokeWidth=14;" vertex="1" parent="1">
          <mxGeometry x="130" y="150" width="40" height="20" as="geometry" />
        </mxCell>
        <mxCell id="Uhn3fTIwQ2IVQY8i1YJ_-11" value="" style="endArrow=classic;html=1;" edge="1" parent="1">
          <mxGeometry width="50" height="50" relative="1" as="geometry">
            <mxPoint x="180" y="160" as="sourcePoint" />
            <mxPoint x="240" y="190" as="targetPoint" />
          </mxGeometry>
        </mxCell>
        <mxCell id="Uhn3fTIwQ2IVQY8i1YJ_-12" value="A" style="text;html=1;strokeColor=none;fillColor=none;align=center;verticalAlign=middle;whiteSpace=wrap;rounded=0;strokeWidth=14;" vertex="1" parent="1">
          <mxGeometry x="250" y="450" width="40" height="20" as="geometry" />
        </mxCell>
        <mxCell id="Uhn3fTIwQ2IVQY8i1YJ_-13" value="B" style="text;html=1;strokeColor=none;fillColor=none;align=center;verticalAlign=middle;whiteSpace=wrap;rounded=0;strokeWidth=14;" vertex="1" parent="1">
          <mxGeometry x="250" y="390" width="40" height="20" as="geometry" />
        </mxCell>
        <mxCell id="Uhn3fTIwQ2IVQY8i1YJ_-14" value="C" style="text;html=1;strokeColor=none;fillColor=none;align=center;verticalAlign=middle;whiteSpace=wrap;rounded=0;strokeWidth=14;" vertex="1" parent="1">
          <mxGeometry x="250" y="330" width="40" height="20" as="geometry" />
        </mxCell>
        <mxCell id="Uhn3fTIwQ2IVQY8i1YJ_-15" value="D" style="text;html=1;strokeColor=none;fillColor=none;align=center;verticalAlign=middle;whiteSpace=wrap;rounded=0;strokeWidth=14;" vertex="1" parent="1">
          <mxGeometry x="250" y="270" width="40" height="20" as="geometry" />
        </mxCell>
        <mxCell id="Uhn3fTIwQ2IVQY8i1YJ_-16" value="" style="endArrow=classic;html=1;" edge="1" parent="1">
          <mxGeometry width="50" height="50" relative="1" as="geometry">
            <mxPoint x="300" y="190" as="sourcePoint" />
            <mxPoint x="350" y="160" as="targetPoint" />
          </mxGeometry>
        </mxCell>
        <mxCell id="Uhn3fTIwQ2IVQY8i1YJ_-17" value="&lt;font style=&quot;font-size: 14px&quot;&gt;出栈&lt;br&gt;{D,C,B,A}&lt;/font&gt;" style="text;html=1;strokeColor=none;fillColor=none;align=center;verticalAlign=middle;whiteSpace=wrap;rounded=0;strokeWidth=14;" vertex="1" parent="1">
          <mxGeometry x="370" y="150" width="40" height="20" as="geometry" />
        </mxCell>
        <mxCell id="Uhn3fTIwQ2IVQY8i1YJ_-18" value="&lt;font style=&quot;font-size: 18px&quot;&gt;栈&lt;/font&gt;" style="text;html=1;strokeColor=none;fillColor=none;align=center;verticalAlign=middle;whiteSpace=wrap;rounded=0;strokeWidth=14;" vertex="1" parent="1">
          <mxGeometry x="250" y="530" width="40" height="20" as="geometry" />
        </mxCell>
        <mxCell id="Uhn3fTIwQ2IVQY8i1YJ_-19" value="&lt;font style=&quot;font-size: 14px&quot;&gt;栈顶 top&lt;/font&gt;" style="text;html=1;strokeColor=none;fillColor=none;align=center;verticalAlign=middle;whiteSpace=wrap;rounded=0;strokeWidth=14;" vertex="1" parent="1">
          <mxGeometry x="120" y="270" width="60" height="20" as="geometry" />
        </mxCell>
        <mxCell id="Uhn3fTIwQ2IVQY8i1YJ_-20" value="&lt;font style=&quot;font-size: 14px&quot;&gt;栈底 bottom&lt;/font&gt;" style="text;html=1;strokeColor=none;fillColor=none;align=center;verticalAlign=middle;whiteSpace=wrap;rounded=0;strokeWidth=14;" vertex="1" parent="1">
          <mxGeometry x="102.5" y="450" width="95" height="20" as="geometry" />
        </mxCell>
        <mxCell id="Uhn3fTIwQ2IVQY8i1YJ_-21" value="&lt;p style=&quot;line-height: 150%&quot;&gt;&lt;font style=&quot;font-size: 14px ; line-height: 149%&quot;&gt;将序列{A,B,C,D}依次&amp;nbsp;&lt;font color=&quot;#ff0000&quot;&gt;全部&amp;nbsp;&lt;/font&gt;入栈之后然后全部出栈，序列变为{D,C,B,A}&lt;/font&gt;&lt;/p&gt;&lt;p style=&quot;line-height: 150%&quot;&gt;&lt;font style=&quot;font-size: 14px ; line-height: 149%&quot;&gt;后进先出：last in first out&lt;/font&gt;&lt;/p&gt;" style="shape=note;whiteSpace=wrap;html=1;backgroundOutline=1;darkOpacity=0.05;align=left;" vertex="1" parent="1">
          <mxGeometry x="560" y="150" width="200" height="100" as="geometry" />
        </mxCell>
        <mxCell id="Uhn3fTIwQ2IVQY8i1YJ_-23" value="&lt;font style=&quot;font-size: 20px&quot;&gt;栈的基本示意图&lt;/font&gt;" style="text;html=1;strokeColor=none;fillColor=none;align=center;verticalAlign=middle;whiteSpace=wrap;rounded=0;" vertex="1" parent="1">
          <mxGeometry x="10" y="50" width="170" height="50" as="geometry" />
        </mxCell>
        <mxCell id="Uhn3fTIwQ2IVQY8i1YJ_-24" value="" style="endArrow=classic;html=1;" edge="1" parent="1">
          <mxGeometry width="50" height="50" relative="1" as="geometry">
            <mxPoint x="700" y="160" as="sourcePoint" />
            <mxPoint x="630" y="110" as="targetPoint" />
          </mxGeometry>
        </mxCell>
        <mxCell id="Uhn3fTIwQ2IVQY8i1YJ_-25" value="可以思考下，不同的入栈出栈时机可能得到的序列不一致" style="text;html=1;strokeColor=none;fillColor=none;align=center;verticalAlign=middle;whiteSpace=wrap;rounded=0;" vertex="1" parent="1">
          <mxGeometry x="630" y="80" width="160" height="30" as="geometry" />
        </mxCell>
      </root>
    </mxGraphModel>
  </diagram>
</mxfile>
